<svg width="24" height="24" viewBox="0 0 24 24" fill="none" xmlns="http://www.w3.org/2000/svg">
<path fill-rule="evenodd" clip-rule="evenodd" d="M3 6.25V15.25C3 15.8467 3.23705 16.419 3.65901 16.841C4.08097 17.2629 4.65326 17.5 5.25 17.5H10.875L16.5 22V17.5H18.75C19.3467 17.5 19.919 17.2629 20.341 16.841C20.7629 16.419 21 15.8467 21 15.25V6.25C21 5.65326 20.7629 5.08097 20.341 4.65901C19.919 4.23705 19.3467 4 18.75 4H5.25C4.65326 4 4.08097 4.23705 3.65901 4.65901C3.23705 5.08097 3 5.65326 3 6.25ZM15.375 9.625H17.625V11.875H15.375V9.625ZM13.125 9.625H10.875V11.875H13.125V9.625ZM6.375 9.625H8.625V11.875H6.375V9.625Z" fill="#7A7A7A"/>
</svg>
