<svg width="22" height="22" viewBox="0 0 22 22" fill="none" xmlns="http://www.w3.org/2000/svg">
<path fill-rule="evenodd" clip-rule="evenodd" d="M10.1908 0.0460899C0.746995 0.951515 -3.39133 12.1222 3.2541 18.7706C9.83375 25.3531 21.0872 21.2673 21.9544 11.9812C22.576 5.32396 16.7539 -0.583085 10.1908 0.0460899ZM13.4326 5.70171C16.6385 6.8308 16.5205 11.2838 13.2593 12.2423C13.0394 12.3069 12.7618 12.32 11.2964 12.335L9.58969 12.3524V13.0775V13.8027L11.0894 13.8155C12.5334 13.8278 12.5937 13.8316 12.7103 13.9181C13.114 14.2176 13.1227 14.7345 12.7285 14.998C12.5838 15.0947 12.5703 15.0955 11.0894 15.0955H9.59626L9.58222 15.9224C9.56453 16.9673 9.45826 17.1645 8.91296 17.1645C8.41991 17.1645 8.30158 16.9208 8.30158 15.9053V15.0955L7.84 15.0953C6.54875 15.0949 6.54875 13.8578 7.84 13.8132L8.30158 13.7973V13.0718V12.3463L7.86147 12.3462C7.20148 12.3461 6.92759 12.1572 6.92759 11.702C6.92759 11.2505 7.20689 11.0576 7.86078 11.0576H8.30158V8.54255C8.30158 5.84015 8.29617 5.9097 8.52292 5.70433C8.68114 5.56107 8.63949 5.56335 10.9207 5.57228L13.0891 5.58074L13.4326 5.70171ZM9.58969 8.95278V11.0576H11.0904C12.0201 11.0576 12.6777 11.0396 12.8186 11.0102C14.4192 10.6762 15.038 8.70952 13.9191 7.51286C13.3346 6.88772 13.1707 6.84794 11.1797 6.84794H9.58969V8.95278Z" fill="#F44F5A"/>
</svg>
